<?xml version="1.0" encoding="utf-8"?>
<!-- Generator: Adobe Illustrator 23.0.5, SVG Export Plug-In . SVG Version: 6.00 Build 0)  -->
<svg version="1.1" id="Capa_1" xmlns="http://www.w3.org/2000/svg" xmlns:xlink="http://www.w3.org/1999/xlink" x="0px" y="0px"
	 viewBox="0 0 1920 1920" style="enable-background:new 0 0 1920 1920;" xml:space="preserve">
<style type="text/css">
	.st0{fill:url(#SVGID_1_);}
	.st1{fill:#002E5F;}
</style>
<radialGradient id="SVGID_1_" cx="967.8085" cy="155.8936" r="1759.3214" gradientUnits="userSpaceOnUse">
	<stop  offset="0" style="stop-color:#FFFFFF"/>
	<stop  offset="1" style="stop-color:#AFAFAF"/>
</radialGradient>
<rect class="st0" width="1920" height="1920"/>
<g>
	<path class="st1" d="M796.9,415.3c51.8-27.5,106-45,165.7-44.8c207.2,1,356.2,202.1,297.3,401c-35.2,119-98.2,223.6-166,325.9
		c-4.4,6.7-8.6,13.5-12.9,20.3c-36,47.2-70.1,95.9-108.5,141.4c-7.1,8.4-12.5,14.3-21.8,2.1C845.6,1123.3,745.5,982.3,678.4,821
		c-26.2-62.9-37.8-127.7-24.8-195.6c15.3-79.9,56.1-143.9,120.6-193.1C781.7,426.6,789.4,420.9,796.9,415.3z M959.9,804.1
		c66.8,0.5,121.4-52.5,122.4-118.8c0.9-67.4-52.7-123-119.8-124.3c-66.8-1.2-122.6,53.5-123.1,120.6
		C838.9,750.4,891.3,803.6,959.9,804.1z"/>
	<path class="st1" d="M1094.1,1169.9c12.7-25.4,32.7-24.7,57.3-19.8c56.4,11.2,111.7,24.7,163.3,50.5c14.4,7.2,28.3,15.7,41.1,25.4
		c42.4,32.2,48.4,64.7,21.4,110.2c-57.1,55.8-130.3,76.2-205.2,90.4c-167.7,31.6-334.5,29.1-499.2-19.4c-37.5-11-73.2-26.3-104.7-50
		c-56.2-42.2-56-93.5,1.4-134.6c50.5-36.2,110-50.1,168.6-67.2c48.4-14,81.3-6.9,108.5,40c25.7,44.2,64.7,79.6,100.2,116.8
		c9.7,10.1,16.2,11.5,26.6,0.6C1016.8,1267.7,1058.9,1221.8,1094.1,1169.9z"/>
</g>
</svg>
