<?xml version="1.0" encoding="utf-8"?>
<!-- Generator: Adobe Illustrator 23.0.5, SVG Export Plug-In . SVG Version: 6.00 Build 0)  -->
<svg version="1.1" id="Capa_1" xmlns="http://www.w3.org/2000/svg" xmlns:xlink="http://www.w3.org/1999/xlink" x="0px" y="0px"
	 viewBox="0 0 1920 1920" style="enable-background:new 0 0 1920 1920;" xml:space="preserve">
<style type="text/css">
	.st0{fill:url(#SVGID_1_);}
	.st1{fill:#002E5F;}
</style>
<radialGradient id="SVGID_1_" cx="967.8085" cy="155.8936" r="1759.3214" gradientUnits="userSpaceOnUse">
	<stop  offset="0" style="stop-color:#FFFFFF"/>
	<stop  offset="1" style="stop-color:#AFAFAF"/>
</radialGradient>
<path class="st0" d="M1687.5,1920h-1455C104.1,1920,0,1815.9,0,1687.5v-1455C0,104.1,104.1,0,232.5,0h1455
	C1815.9,0,1920,104.1,1920,232.5v1455C1920,1815.9,1815.9,1920,1687.5,1920z"/>
<g>
	<path class="st1" d="M721.8,215.2c75.7-40.2,154.9-65.8,242.1-65.4c302.7,1.4,520.5,295.3,434.5,585.9
		c-51.5,173.9-143.5,326.7-242.5,476.1c-6.5,9.8-12.6,19.8-18.9,29.7c-52.6,69-102.4,140.2-158.5,206.5
		c-10.3,12.2-18.3,20.9-31.9,3.1c-153.6-201.5-299.9-407.4-398-643.1c-38.2-91.9-55.2-186.6-36.2-285.8
		c22.4-116.8,81.9-210.3,176.2-282.1C699.5,231.7,710.7,223.5,721.8,215.2z M959.8,783.3c97.6,0.7,177.4-76.8,178.8-173.5
		c1.4-98.4-77-179.8-175-181.6c-97.5-1.8-179.2,78.2-179.8,176.3C783.1,704.9,859.6,782.6,959.8,783.3z"/>
	<path class="st1" d="M1155.9,1317.7c18.5-37.1,47.7-36.1,83.8-28.9c82.3,16.3,163.3,36,238.7,73.8c21,10.5,41.4,22.9,60.1,37.1
		c62,47.1,70.7,94.6,31.3,161c-83.4,81.6-190.3,111.4-299.9,132.1c-245,46.2-488.7,42.5-729.4-28.3c-54.7-16.1-107-38.5-153-73.1
		c-82-61.7-81.8-136.6,2.1-196.7c73.8-52.9,160.7-73.2,246.4-98.1c70.6-20.5,118.7-10.1,158.5,58.5
		c37.5,64.6,94.5,116.4,146.5,170.7c14.2,14.8,23.6,16.8,38.8,0.9C1043,1460.7,1104.5,1393.5,1155.9,1317.7z"/>
</g>
</svg>
